<?xml version="1.0" encoding="UTF-8"?>
<svg width="16px" height="16px" viewBox="0 0 16 16" version="1.1" xmlns="http://www.w3.org/2000/svg" xmlns:xlink="http://www.w3.org/1999/xlink">
    <!-- Generator: Sketch 51.2 (57519) - http://www.bohemiancoding.com/sketch -->
    <title>Group</title>
    <desc>Created with Sketch.</desc>
    <defs></defs>
    <g id="Page-1" stroke="none" stroke-width="1" fill="none" fill-rule="evenodd">
        <g id="Artboard" transform="translate(-35.000000, -92.000000)" fill="#333333" fill-rule="nonzero">
            <g id="Group" transform="translate(35.000000, 92.000000)">
                <path d="M9.44,12.92 C5.87224052,12.92 2.98,10.0277595 2.98,6.46 C2.98,2.89224052 5.87224052,0 9.44,0 C13.0077595,0 15.9,2.89224052 15.9,6.46 C15.9,10.0277595 13.0077595,12.92 9.44,12.92 Z M9.44,11.9918391 C12.4951504,11.9918391 14.9718391,9.51515036 14.9718391,6.46 C14.9718391,3.40484964 12.4951504,0.92816092 9.44,0.92816092 C6.38484964,0.92816092 3.90816092,3.40484964 3.90816092,6.46 C3.90816092,9.51515036 6.38484964,11.9918391 9.44,11.9918391 Z" id="Oval"></path>
                <path d="M4.32354783,9.76532178 L0.354156522,13.7347131 C-0.118191304,14.2070609 -0.118191304,14.9722783 0.354156522,15.4446261 C0.826504348,15.916974 1.59241739,15.916974 2.06406957,15.4446261 L5.7885913,11.7201044" id="Fill-3"></path>
            </g>
        </g>
    </g>
</svg>